<svg width="168" height="39" viewBox="0 0 168 39" fill="none" xmlns="http://www.w3.org/2000/svg">
<g filter="url(#filter0_d_1_22)">
<path d="M9.02051 17.8926C8.87402 17.9219 8.74219 17.9365 8.625 17.9365L8.88867 21.8916C8.94727 22.7998 8.99121 23.7227 9.02051 24.6602C9.0498 25.5684 9.06445 26.4912 9.06445 27.4287C9.06445 27.9268 8.88867 28.3369 8.53711 28.6592C8.18555 28.9814 7.79004 29.1426 7.35059 29.1426C6.94043 29.1426 6.53027 28.9961 6.12012 28.7031C5.73926 28.4395 5.51953 28 5.46094 27.3848C5.46094 24.6602 5.3291 21.9062 5.06543 19.123C4.83105 16.3105 4.71387 13.5566 4.71387 10.8613C4.71387 10.334 4.69922 9.74805 4.66992 9.10352C4.66992 8.42969 4.69922 7.78516 4.75781 7.16992C4.81641 6.52539 4.91895 5.93945 5.06543 5.41211C5.24121 4.85547 5.50488 4.43066 5.85645 4.1377C6.88184 3.69824 7.92188 3.34668 8.97656 3.08301C10.0605 2.81934 11.1592 2.57031 12.2725 2.33594C13.3857 2.10156 14.5137 1.88184 15.6562 1.67676C16.7988 1.44238 17.9561 1.14941 19.1279 0.797852C19.7725 0.797852 20.2705 0.958984 20.6221 1.28125C21.0029 1.60352 21.1934 2.01367 21.1934 2.51172C21.1934 3.21484 20.8418 3.81543 20.1387 4.31348C19.1426 4.60645 18.1465 4.85547 17.1504 5.06055C16.1836 5.23633 15.2168 5.41211 14.25 5.58789C13.2832 5.76367 12.3164 5.9541 11.3496 6.15918C10.4121 6.33496 9.45996 6.58398 8.49316 6.90625C8.43457 7.49219 8.39062 8.09277 8.36133 8.70801C8.33203 9.29395 8.31738 9.89453 8.31738 10.5098V11.2568L8.44922 14.2891C10.3242 13.8203 12.3164 13.5127 14.4258 13.3662C16.5645 13.1904 18.7031 13.1025 20.8418 13.1025C21.3398 13.2783 21.7354 13.542 22.0283 13.8936C22.3213 14.2158 22.4678 14.5674 22.4678 14.9482C22.4678 15.3877 22.3066 15.7539 21.9844 16.0469C21.6621 16.3398 21.252 16.5596 20.7539 16.7061C18.7324 16.7061 16.7549 16.7646 14.8213 16.8818C12.8877 16.999 10.9541 17.3359 9.02051 17.8926ZM37.2773 21.8477L36.9697 21.8037C36.5303 21.7158 36.1201 21.5693 35.7393 21.3643C35.3877 21.1592 35.0361 20.9541 34.6846 20.749C34.333 20.5439 33.9961 20.3682 33.6738 20.2217C33.3516 20.0459 33.0293 19.958 32.707 19.958C31.6816 20.0752 30.7881 20.4268 30.0264 21.0127C29.2939 21.5986 28.9277 22.3018 28.9277 23.1221C28.9277 23.3564 28.9863 23.6055 29.1035 23.8691C29.2207 24.1328 29.4111 24.4697 29.6748 24.8799C30.4365 25.3486 31.2715 25.583 32.1797 25.583C33.2344 25.583 34.1572 25.4805 34.9482 25.2754L35.5195 24.7041C35.8125 24.3232 36.208 24.1328 36.7061 24.1328H36.9258C36.9551 23.8984 36.9844 23.6641 37.0137 23.4297C37.043 23.1953 37.0869 22.9609 37.1455 22.7266L37.2773 21.8477ZM37.9365 27.165L36.9258 28.1318C36.5449 28.4834 35.9297 28.7324 35.0801 28.8789C34.2598 29.0547 33.3955 29.1426 32.4873 29.1426C31.2568 29.1426 30.2021 29.0107 29.3232 28.7471C28.4736 28.4834 27.7266 27.9707 27.082 27.209C26.0273 25.8027 25.5 24.4844 25.5 23.2539C25.5 22.4336 25.6611 21.6279 25.9834 20.8369C26.335 20.0166 26.8184 19.2842 27.4336 18.6396C28.0488 17.9951 28.7959 17.4678 29.6748 17.0576C30.583 16.6475 31.5938 16.4424 32.707 16.4424C33.1758 16.501 33.6299 16.6035 34.0693 16.75C34.5088 16.8965 34.9189 17.0576 35.2998 17.2334C35.6807 17.4092 36.0176 17.585 36.3105 17.7607C36.6328 17.9072 36.8818 18.0244 37.0576 18.1123L36.7939 16.9258C36.6475 16.457 36.4717 16.0029 36.2666 15.5635C36.0615 15.0947 35.8125 14.6406 35.5195 14.2012L34.6406 13.4102C34.4062 13.3516 34.1865 13.2783 33.9814 13.1904C33.7764 13.0732 33.5127 13.0146 33.1904 13.0146C32.3408 13.0732 31.5059 13.1904 30.6855 13.3662C29.8652 13.5127 29.0449 13.7324 28.2246 14.0254C28.1367 14.0547 28.0049 14.0693 27.8291 14.0693C27.2139 14.0693 26.7305 13.8936 26.3789 13.542C26.0566 13.1904 25.8955 12.8096 25.8955 12.3994C25.8955 12.0479 25.9834 11.7402 26.1592 11.4766C26.335 11.1836 26.6719 10.8906 27.1699 10.5977C27.9316 10.3633 28.7666 10.1143 29.6748 9.85059C30.6123 9.55762 31.5498 9.41113 32.4873 9.41113C34.0986 9.41113 35.4316 9.7334 36.4863 10.3779C37.5703 11.0225 38.4199 11.8721 39.0352 12.9268C39.6797 13.9521 40.1191 15.0947 40.3535 16.3545C40.6172 17.6143 40.749 18.8594 40.749 20.0898C40.749 20.8223 40.7197 21.6133 40.6611 22.4629C40.6318 23.2832 40.5293 24.0596 40.3535 24.792C40.207 25.4951 39.9873 26.0811 39.6943 26.5498C39.4014 27.0186 39.0059 27.2529 38.5078 27.2529C38.3906 27.2529 38.2734 27.2529 38.1562 27.2529C38.0391 27.2236 37.9658 27.1943 37.9365 27.165ZM53.0977 27.8682L52.6582 27.9561H52.5264C51.999 27.9561 51.5742 27.707 51.252 27.209C50.9297 26.7109 50.666 26.1543 50.4609 25.5391C50.2559 24.8945 50.1094 24.2793 50.0215 23.6934C49.9336 23.1074 49.8604 22.7266 49.8018 22.5508C49.4502 21.4082 49.0693 20.3535 48.6592 19.3867C48.2783 18.3906 47.8975 17.4092 47.5166 16.4424L46.9893 14.5967C46.8428 14.0986 46.7402 13.7178 46.6816 13.4541C46.6523 13.1611 46.6377 12.9414 46.6377 12.7949C46.6377 12.1504 46.8428 11.7109 47.2529 11.4766C47.6924 11.2422 48.1318 11.125 48.5713 11.125C48.9521 11.125 49.2451 11.1982 49.4502 11.3447C49.6553 11.4619 49.8164 11.6816 49.9336 12.0039C50.0801 12.2969 50.2119 12.707 50.3291 13.2344C50.4756 13.7324 50.666 14.377 50.9004 15.168C51.3105 16.252 51.7207 17.3506 52.1309 18.4639C52.541 19.5479 52.9512 20.6758 53.3613 21.8477L53.7129 21.1445C53.918 20.8809 54.167 20.3828 54.46 19.6504C55.1338 18.5664 55.7197 17.5117 56.2178 16.4863C56.7158 15.4316 57.0674 14.4795 57.2725 13.6299C57.3896 13.1025 57.624 12.7217 57.9756 12.4873C58.3564 12.2236 58.708 12.0918 59.0303 12.0918C59.499 12.0918 59.9238 12.2529 60.3047 12.5752C60.6855 12.8975 60.876 13.3955 60.876 14.0693C60.5244 15.3877 60.0557 16.5596 59.4697 17.585C58.8838 18.5811 58.3271 19.5918 57.7998 20.6172L55.9541 24.1328C55.5439 24.8945 55.1631 25.583 54.8115 26.1982C54.46 26.8135 54.1084 27.2822 53.7568 27.6045L53.0977 27.8682ZM66.7207 11.7402C66.3105 11.2715 66.1055 10.8174 66.1055 10.3779C66.1055 9.87988 66.252 9.45508 66.5449 9.10352C66.8672 8.75195 67.2773 8.57617 67.7754 8.57617C68.1562 8.57617 68.5371 8.69336 68.918 8.92773C69.2988 9.13281 69.6504 9.39648 69.9727 9.71875C70.2949 10.0117 70.5732 10.3047 70.8076 10.5977C71.042 10.8906 71.1885 11.0957 71.2471 11.2129C71.3057 11.1836 71.4375 11.1689 71.6426 11.1689C72.1992 11.1689 72.7266 11.3154 73.2246 11.6084C73.752 11.8721 74.2207 12.2236 74.6309 12.6631C75.0703 13.1025 75.4512 13.5713 75.7734 14.0693C76.0957 14.5674 76.374 15.0361 76.6084 15.4756C76.8428 15.915 77.0479 16.3984 77.2236 16.9258C77.4287 17.4238 77.5898 17.9365 77.707 18.4639C77.8242 18.9912 77.9121 19.5039 77.9707 20.002C78.0293 20.5 78.0586 20.9541 78.0586 21.3643C78.0586 22.5654 77.8975 23.6934 77.5752 24.748C77.2822 25.7734 76.7842 26.6816 76.0811 27.4727C75.4072 28.2637 74.5137 28.8789 73.4004 29.3184C72.2871 29.7871 70.9248 30.0215 69.3135 30.0215C68.1416 30.0215 67.1748 29.6699 66.4131 28.9668C65.6807 28.2637 65.1094 27.4434 64.6992 26.5059C64.2891 25.5391 63.9961 24.5576 63.8203 23.5615C63.6738 22.5654 63.6006 21.7598 63.6006 21.1445C63.6006 20.5586 63.6738 19.9873 63.8203 19.4307C63.9668 18.874 64.1572 18.3613 64.3916 17.8926C64.626 17.3945 64.8604 16.9551 65.0947 16.5742C65.3584 16.1934 65.6074 15.8711 65.8418 15.6074L68.0391 13.0146C68.0098 12.8975 67.9072 12.7656 67.7314 12.6191C67.585 12.4434 67.4385 12.2822 67.292 12.1357L66.7207 11.7402ZM71.1592 14.5527L70.9834 14.8164C70.6318 15.2559 70.2363 15.71 69.7969 16.1787C69.3867 16.6475 68.9912 17.1309 68.6104 17.6289C68.2295 18.127 67.9072 18.6689 67.6436 19.2549C67.3799 19.8408 67.248 20.4854 67.248 21.1885C67.248 21.833 67.292 22.4775 67.3799 23.1221C67.4971 23.7373 67.6436 24.2939 67.8193 24.792C68.0244 25.29 68.2734 25.7002 68.5664 26.0225C68.8594 26.3154 69.1963 26.4619 69.5771 26.4619C69.8994 26.4619 70.2217 26.4326 70.5439 26.374C70.8955 26.3154 71.2031 26.2568 71.4668 26.1982L73.0488 25.4072C73.1367 25.29 73.2832 25.1436 73.4883 24.9678C73.6934 24.7627 73.8545 24.5576 73.9717 24.3525C74.2354 23.3857 74.3672 22.4336 74.3672 21.4961C74.3672 20.2656 74.1621 19.0938 73.752 17.9805C73.3418 16.8379 72.7119 15.7979 71.8623 14.8604L71.335 14.5967H71.291C71.2324 14.5967 71.1885 14.582 71.1592 14.5527ZM83.0244 26.7256C83.0244 25.9346 83.0391 25.1143 83.0684 24.2646C83.127 23.415 83.2295 22.6094 83.376 21.8477L83.6836 18.5957L84.0791 16.2227C84.167 15.8418 84.2109 15.4902 84.2109 15.168C84.2109 14.8164 84.1377 14.4502 83.9912 14.0693C83.874 13.6885 83.5371 13.498 82.9805 13.498C82.7461 13.498 82.5117 13.4395 82.2773 13.3223C82.0723 13.1758 81.8818 13.0146 81.7061 12.8389C81.5303 12.6338 81.3838 12.4287 81.2666 12.2236C81.1787 12.0186 81.1348 11.8281 81.1348 11.6523C81.1348 11.3008 81.3105 10.9199 81.6621 10.5098C82.0137 10.0996 82.4971 9.89453 83.1123 9.89453C84.6357 10.041 85.749 10.4658 86.4521 11.1689C87.1553 11.8721 87.5068 12.7363 87.5068 13.7617C88.3857 13.1465 89.4111 12.6924 90.583 12.3994C91.7549 12.0771 93.1465 11.8574 94.7578 11.7402C95.4023 11.7402 95.9004 11.916 96.252 12.2676C96.6035 12.5898 96.7793 13 96.7793 13.498C96.7793 13.9375 96.6328 14.333 96.3398 14.6846C96.0469 15.0068 95.6514 15.2119 95.1533 15.2998C93.8057 15.3877 92.6631 15.5342 91.7256 15.7393C90.7881 15.9443 89.9971 16.2812 89.3525 16.75C88.708 17.1895 88.21 17.79 87.8584 18.5518C87.5068 19.3135 87.2432 20.2949 87.0674 21.4961L86.9355 22.1553V23.957C86.9062 24.3965 86.877 24.8506 86.8477 25.3193C86.8477 25.7588 86.8184 26.2129 86.7598 26.6816L86.6279 27.4727L86.3643 28.1758C85.8955 28.7324 85.3535 29.0107 84.7383 29.0107C83.6836 29.0107 83.1123 28.3955 83.0244 27.165V26.7256ZM105.041 16.0908C105.188 15.417 105.451 14.9775 105.832 14.7725C106.213 14.5381 106.652 14.4209 107.15 14.4209C107.561 14.4795 107.912 14.6992 108.205 15.0801C108.498 15.4609 108.645 15.9297 108.645 16.4863C108.586 17.6289 108.527 18.6543 108.469 19.5625C108.41 20.4414 108.366 21.3057 108.337 22.1553C108.308 23.0049 108.278 23.8984 108.249 24.8359C108.249 25.7441 108.249 26.7988 108.249 28C108.249 28.498 108.059 28.9082 107.678 29.2305C107.297 29.582 106.901 29.7578 106.491 29.7578C106.081 29.7578 105.686 29.6113 105.305 29.3184C104.924 29.0254 104.704 28.5713 104.646 27.9561C104.646 25.6416 104.689 23.6641 104.777 22.0234L105.041 16.0908ZM103.151 9.6748C102.8 9.52832 102.507 9.30859 102.272 9.01562C102.067 8.69336 101.965 8.37109 101.965 8.04883C101.965 7.60938 102.111 7.18457 102.404 6.77441C102.727 6.36426 103.225 6.15918 103.898 6.15918C104.748 6.30566 105.495 6.55469 106.14 6.90625C106.784 7.25781 107.443 7.47754 108.117 7.56543C108.645 7.71191 109.025 7.97559 109.26 8.35645C109.494 8.70801 109.611 9.05957 109.611 9.41113C109.611 9.82129 109.45 10.2168 109.128 10.5977C108.835 10.9785 108.439 11.1689 107.941 11.1689C107.502 11.1689 107.077 11.1104 106.667 10.9932C106.286 10.876 105.905 10.7295 105.524 10.5537C105.144 10.3779 104.763 10.2168 104.382 10.0703C104.001 9.89453 103.591 9.7627 103.151 9.6748ZM127.98 24.0889C128.361 23.6494 128.684 23.3711 128.947 23.2539C129.24 23.1074 129.548 23.0342 129.87 23.0342C130.368 23.0342 130.734 23.2393 130.969 23.6494C131.232 24.0596 131.364 24.5283 131.364 25.0557C131.218 25.6123 130.969 26.0811 130.617 26.4619C130.295 26.8428 129.899 27.1504 129.431 27.3848C128.962 27.6191 128.449 27.7949 127.893 27.9121C127.336 28 126.779 28.0439 126.223 28.0439C125.637 28.0146 125.051 27.9268 124.465 27.7803C123.908 27.6338 123.381 27.4434 122.883 27.209C122.385 26.9453 121.945 26.6523 121.564 26.3301C121.213 25.9785 120.964 25.583 120.817 25.1436C120.144 23.4736 119.689 21.7598 119.455 20.002C119.221 18.2148 119.104 16.4863 119.104 14.8164V13.7178L116.379 14.1133C115.793 14.0547 115.339 13.8496 115.017 13.498C114.724 13.1465 114.577 12.7217 114.577 12.2236C114.577 11.9014 114.694 11.5791 114.929 11.2568C115.163 10.9053 115.515 10.6562 115.983 10.5098L119.191 10.1143C119.191 9.08887 119.221 8.07812 119.279 7.08203C119.367 6.05664 119.426 5.03125 119.455 4.00586C119.777 2.98047 120.363 2.40918 121.213 2.29199C122.062 2.29199 122.678 2.83398 123.059 3.91797C123 5.08984 122.912 6.55469 122.795 8.3125L122.707 9.54297C123.469 9.42578 124.26 9.33789 125.08 9.2793C125.9 9.2207 126.765 9.19141 127.673 9.19141C128.728 9.57227 129.255 10.1582 129.255 10.9492C129.196 11.3594 129.035 11.7402 128.771 12.0918C128.508 12.4141 128.112 12.6338 127.585 12.751C125.856 12.751 124.201 12.8828 122.619 13.1465V14.2891C122.619 15.2266 122.648 16.1641 122.707 17.1016C122.766 18.0098 122.839 18.8887 122.927 19.7383C123.044 20.5586 123.19 21.3203 123.366 22.0234C123.542 22.6973 123.747 23.2539 123.981 23.6934C124.362 23.8691 124.802 24.0449 125.3 24.2207C125.798 24.3672 126.281 24.4404 126.75 24.4404C127.014 24.4404 127.365 24.3672 127.805 24.2207L127.98 24.0889ZM137.868 16.3984C137.81 16.4277 137.78 16.457 137.78 16.4863H137.868C138.073 16.4863 138.278 16.5449 138.483 16.6621C138.688 16.75 138.864 16.8672 139.011 17.0137C139.157 17.1309 139.274 17.248 139.362 17.3652C139.479 17.4531 139.553 17.4971 139.582 17.4971C140.021 17.7021 140.505 17.8047 141.032 17.8047C141.882 17.8047 142.6 17.6875 143.186 17.4531C143.771 17.1895 144.064 16.5742 144.064 15.6074C143.889 15.0215 143.684 14.5381 143.449 14.1572C143.244 13.7764 142.893 13.4102 142.395 13.0586L141.472 12.6631H140.856C140.622 12.6631 140.314 12.7217 139.934 12.8389C139.553 12.9561 139.172 13.1172 138.791 13.3223C138.674 13.498 138.557 13.7617 138.439 14.1133C138.322 14.4355 138.22 14.7578 138.132 15.0801C138.044 15.4023 137.971 15.6953 137.912 15.959C137.883 16.2227 137.868 16.3691 137.868 16.3984ZM138.22 20.6611L138.088 20.1777C138.439 21.7305 139.289 23.0049 140.637 24.001C140.93 24.2354 141.296 24.4404 141.735 24.6162C142.204 24.792 142.658 24.9531 143.098 25.0996C143.566 25.2461 143.977 25.3633 144.328 25.4512C144.68 25.5098 144.899 25.5391 144.987 25.5391C145.28 25.2754 145.646 25.1436 146.086 25.1436C146.613 25.2021 147.023 25.4219 147.316 25.8027C147.609 26.1543 147.756 26.5352 147.756 26.9453C147.756 27.5898 147.448 28.1025 146.833 28.4834C146.247 28.8936 145.617 29.0986 144.943 29.0986C143.508 29.0986 142.146 28.8057 140.856 28.2197C139.567 27.6631 138.439 26.9014 137.473 25.9346C136.506 24.9678 135.715 23.8545 135.1 22.5947C134.514 21.335 134.191 20.002 134.133 18.5957C134.133 17.6289 134.206 16.5889 134.353 15.4756C134.499 14.3623 134.807 13.3369 135.275 12.3994C135.744 11.4326 136.418 10.627 137.297 9.98242C138.205 9.33789 139.406 9.01562 140.9 9.01562C141.838 9.01562 142.717 9.2207 143.537 9.63086C144.357 10.0117 145.061 10.5391 145.646 11.2129C146.262 11.8867 146.745 12.6631 147.097 13.542C147.448 14.3916 147.624 15.2852 147.624 16.2227C147.624 17.0723 147.463 17.8193 147.141 18.4639C146.848 19.1084 146.438 19.6504 145.91 20.0898C145.383 20.5 144.753 20.8223 144.021 21.0566C143.317 21.2617 142.57 21.3643 141.779 21.3643C141.457 21.3643 141.091 21.335 140.681 21.2764C140.3 21.2178 139.934 21.1592 139.582 21.1006C139.23 21.0127 138.923 20.9395 138.659 20.8809C138.425 20.793 138.278 20.7197 138.22 20.6611ZM162.258 9.6748C162.727 9.82129 163.078 10.0703 163.312 10.4219C163.547 10.7734 163.664 11.125 163.664 11.4766C163.664 11.9746 163.488 12.3994 163.137 12.751C162.785 13.0732 162.36 13.2344 161.862 13.2344C161.716 13.2344 161.599 13.2197 161.511 13.1904C160.896 13.0146 160.324 12.8828 159.797 12.7949C159.27 12.6777 158.757 12.6191 158.259 12.6191C157.819 12.6191 157.38 12.6631 156.94 12.751C156.501 12.8389 156.032 12.9561 155.534 13.1025L155.49 13.1465C155.93 13.9961 156.53 14.7432 157.292 15.3877C158.054 16.0322 158.845 16.6914 159.665 17.3652C160.485 18.0098 161.262 18.6982 161.994 19.4307C162.756 20.1631 163.312 21.0127 163.664 21.9795C163.811 22.3604 163.884 22.7559 163.884 23.166C163.884 23.7812 163.767 24.4258 163.532 25.0996C163.298 25.7734 162.946 26.3887 162.478 26.9453C162.038 27.502 161.467 27.9561 160.764 28.3076C160.061 28.6885 159.226 28.8789 158.259 28.8789C157.175 28.8789 156.179 28.7031 155.271 28.3516C154.392 28.0293 153.615 27.5898 152.941 27.0332L152.106 26.5059L151.711 26.1104C151.271 25.7295 151.037 25.2607 151.008 24.7041V24.4404C151.096 23.8838 151.286 23.4883 151.579 23.2539C151.901 22.9902 152.282 22.8291 152.722 22.7705C153.308 22.7705 153.85 23.0781 154.348 23.6934L155.402 24.2646C155.812 24.499 156.267 24.7334 156.765 24.9678C157.292 25.2021 157.805 25.3193 158.303 25.3193C158.713 25.3193 159.108 25.2021 159.489 24.9678L159.753 24.748C159.841 24.4844 159.914 24.2207 159.973 23.957C160.061 23.6934 160.104 23.4443 160.104 23.21C160.104 22.7705 160.002 22.4043 159.797 22.1113C159.621 21.7891 159.372 21.5107 159.05 21.2764C158.757 21.0127 158.435 20.7783 158.083 20.5732C157.731 20.3389 157.38 20.0898 157.028 19.8262C156.706 19.5918 156.252 19.2256 155.666 18.7275C155.109 18.2002 154.538 17.6143 153.952 16.9697C153.366 16.3252 152.854 15.6514 152.414 14.9482C152.004 14.2158 151.799 13.542 151.799 12.9268C151.799 12.1943 152.019 11.5791 152.458 11.0811C152.897 10.5537 153.439 10.1436 154.084 9.85059C154.729 9.52832 155.402 9.30859 156.105 9.19141C156.809 9.04492 157.409 8.97168 157.907 8.97168C158.728 8.97168 159.46 9.03027 160.104 9.14746C160.778 9.26465 161.496 9.44043 162.258 9.6748Z" fill="black"/>
</g>
<defs>
<filter id="filter0_d_1_22" x="0.669922" y="0.797852" width="167.214" height="37.2236" filterUnits="userSpaceOnUse" color-interpolation-filters="sRGB">
<feFlood flood-opacity="0" result="BackgroundImageFix"/>
<feColorMatrix in="SourceAlpha" type="matrix" values="0 0 0 0 0 0 0 0 0 0 0 0 0 0 0 0 0 0 127 0" result="hardAlpha"/>
<feOffset dy="4"/>
<feGaussianBlur stdDeviation="2"/>
<feComposite in2="hardAlpha" operator="out"/>
<feColorMatrix type="matrix" values="0 0 0 0 1 0 0 0 0 1 0 0 0 0 0 0 0 0 0.75 0"/>
<feBlend mode="normal" in2="BackgroundImageFix" result="effect1_dropShadow_1_22"/>
<feBlend mode="normal" in="SourceGraphic" in2="effect1_dropShadow_1_22" result="shape"/>
</filter>
</defs>
</svg>
