<svg width="99" height="39" viewBox="0 0 99 39" fill="none" xmlns="http://www.w3.org/2000/svg">
<g filter="url(#filter0_d_1_13)">
<path d="M9.02051 17.8926C8.87402 17.9219 8.74219 17.9365 8.625 17.9365L8.88867 21.8916C8.94727 22.7998 8.99121 23.7227 9.02051 24.6602C9.0498 25.5684 9.06445 26.4912 9.06445 27.4287C9.06445 27.9268 8.88867 28.3369 8.53711 28.6592C8.18555 28.9814 7.79004 29.1426 7.35059 29.1426C6.94043 29.1426 6.53027 28.9961 6.12012 28.7031C5.73926 28.4395 5.51953 28 5.46094 27.3848C5.46094 24.6602 5.3291 21.9062 5.06543 19.123C4.83105 16.3105 4.71387 13.5566 4.71387 10.8613C4.71387 10.334 4.69922 9.74805 4.66992 9.10352C4.66992 8.42969 4.69922 7.78516 4.75781 7.16992C4.81641 6.52539 4.91895 5.93945 5.06543 5.41211C5.24121 4.85547 5.50488 4.43066 5.85645 4.1377C6.88184 3.69824 7.92188 3.34668 8.97656 3.08301C10.0605 2.81934 11.1592 2.57031 12.2725 2.33594C13.3857 2.10156 14.5137 1.88184 15.6562 1.67676C16.7988 1.44238 17.9561 1.14941 19.1279 0.797852C19.7725 0.797852 20.2705 0.958984 20.6221 1.28125C21.0029 1.60352 21.1934 2.01367 21.1934 2.51172C21.1934 3.21484 20.8418 3.81543 20.1387 4.31348C19.1426 4.60645 18.1465 4.85547 17.1504 5.06055C16.1836 5.23633 15.2168 5.41211 14.25 5.58789C13.2832 5.76367 12.3164 5.9541 11.3496 6.15918C10.4121 6.33496 9.45996 6.58398 8.49316 6.90625C8.43457 7.49219 8.39062 8.09277 8.36133 8.70801C8.33203 9.29395 8.31738 9.89453 8.31738 10.5098V11.2568L8.44922 14.2891C10.3242 13.8203 12.3164 13.5127 14.4258 13.3662C16.5645 13.1904 18.7031 13.1025 20.8418 13.1025C21.3398 13.2783 21.7354 13.542 22.0283 13.8936C22.3213 14.2158 22.4678 14.5674 22.4678 14.9482C22.4678 15.3877 22.3066 15.7539 21.9844 16.0469C21.6621 16.3398 21.252 16.5596 20.7539 16.7061C18.7324 16.7061 16.7549 16.7646 14.8213 16.8818C12.8877 16.999 10.9541 17.3359 9.02051 17.8926ZM30.8613 16.0908C31.0078 15.417 31.2715 14.9775 31.6523 14.7725C32.0332 14.5381 32.4727 14.4209 32.9707 14.4209C33.3809 14.4795 33.7324 14.6992 34.0254 15.0801C34.3184 15.4609 34.4648 15.9297 34.4648 16.4863C34.4062 17.6289 34.3477 18.6543 34.2891 19.5625C34.2305 20.4414 34.1865 21.3057 34.1572 22.1553C34.1279 23.0049 34.0986 23.8984 34.0693 24.8359C34.0693 25.7441 34.0693 26.7988 34.0693 28C34.0693 28.498 33.8789 28.9082 33.498 29.2305C33.1172 29.582 32.7217 29.7578 32.3115 29.7578C31.9014 29.7578 31.5059 29.6113 31.125 29.3184C30.7441 29.0254 30.5244 28.5713 30.4658 27.9561C30.4658 25.6416 30.5098 23.6641 30.5977 22.0234L30.8613 16.0908ZM28.9717 9.6748C28.6201 9.52832 28.3271 9.30859 28.0928 9.01562C27.8877 8.69336 27.7852 8.37109 27.7852 8.04883C27.7852 7.60938 27.9316 7.18457 28.2246 6.77441C28.5469 6.36426 29.0449 6.15918 29.7188 6.15918C30.5684 6.30566 31.3154 6.55469 31.96 6.90625C32.6045 7.25781 33.2637 7.47754 33.9375 7.56543C34.4648 7.71191 34.8457 7.97559 35.0801 8.35645C35.3145 8.70801 35.4316 9.05957 35.4316 9.41113C35.4316 9.82129 35.2705 10.2168 34.9482 10.5977C34.6553 10.9785 34.2598 11.1689 33.7617 11.1689C33.3223 11.1689 32.8975 11.1104 32.4873 10.9932C32.1064 10.876 31.7256 10.7295 31.3447 10.5537C30.9639 10.3779 30.583 10.2168 30.2021 10.0703C29.8213 9.89453 29.4111 9.7627 28.9717 9.6748ZM43.8691 3.52246C44.0156 3.02441 44.2354 2.62891 44.5283 2.33594C44.8506 2.04297 45.2168 1.89648 45.627 1.89648C46.5059 1.89648 47.1211 2.42383 47.4727 3.47852C47.4727 5.67578 47.458 7.75586 47.4287 9.71875C47.3994 11.6523 47.3848 13.4834 47.3848 15.2119C47.3848 18.1416 47.5605 21.3203 47.9121 24.748C48.1758 24.8359 48.498 24.9385 48.8789 25.0557C49.2891 25.1436 49.6699 25.29 50.0215 25.4951C50.4023 25.6709 50.71 25.9053 50.9443 26.1982C51.208 26.4912 51.3398 26.8574 51.3398 27.2969C51.3398 27.7363 51.1641 28.1172 50.8125 28.4395C50.4902 28.791 50.0947 28.9668 49.626 28.9668C49.3037 28.9668 48.9521 28.8789 48.5713 28.7031C47.5459 28.2051 46.7549 27.8682 46.1982 27.6924C45.6709 27.4873 45.2607 27.2676 44.9678 27.0332C44.7041 26.7695 44.5283 26.374 44.4404 25.8467C44.3525 25.29 44.2646 24.4111 44.1768 23.21C43.9717 22.126 43.8691 20.9395 43.8691 19.6504C43.8691 18.3613 43.8691 17.1162 43.8691 15.915V3.52246ZM55.5586 10.9053C55.6758 10.876 55.8076 10.8613 55.9541 10.8613C56.1006 10.8613 56.2764 10.8467 56.4814 10.8174H56.5254H57.0088C58.4443 10.8174 59.499 11.3447 60.1729 12.3994L60.3486 12.2236C60.4658 12.1943 60.6562 12.0479 60.9199 11.7842L61.0518 11.7402C61.8721 11.3301 62.6045 11.125 63.249 11.125C64.5674 11.125 65.6514 11.5352 66.501 12.3555C67.3506 13.1758 68.0244 14.1426 68.5225 15.2559C68.5225 15.2852 68.5518 15.3291 68.6104 15.3877L68.6543 15.4316C68.9473 14.9922 69.2842 14.5674 69.665 14.1572C70.0459 13.7178 70.4414 13.3369 70.8516 13.0146C71.291 12.6631 71.7305 12.3848 72.1699 12.1797C72.6387 11.9746 73.1074 11.8721 73.5762 11.8721C74.3672 11.8721 75.085 12.165 75.7295 12.751C76.374 13.3076 76.916 14.04 77.3555 14.9482C77.8242 15.8564 78.1904 16.8818 78.4541 18.0244C78.7178 19.167 78.8496 20.3242 78.8496 21.4961C78.8496 22.668 78.8057 23.8545 78.7178 25.0557C78.6299 26.2275 78.5859 27.4287 78.5859 28.6592C78.4395 29.3623 78.1758 29.7871 77.7949 29.9336C77.4141 30.1094 77.0918 30.1973 76.8281 30.1973L75.8174 29.8457C75.7002 29.7285 75.4658 29.4209 75.1143 28.9229V28.8789C75.085 28.8789 75.0703 28.8643 75.0703 28.835C75.0703 28.8057 75.0557 28.791 75.0264 28.791C75.0264 28.791 75.0264 28.7617 75.0264 28.7031L74.9385 28.3955C74.8506 28.1318 74.8066 27.8535 74.8066 27.5605C74.8066 27.3262 74.8359 27.1064 74.8945 26.9014C74.9824 26.667 75.0557 26.4766 75.1143 26.3301L75.2461 25.2314C75.3047 24.6455 75.3486 24.0596 75.3779 23.4736C75.4072 22.8584 75.4219 22.2432 75.4219 21.6279C75.4219 20.4561 75.29 19.3428 75.0264 18.2881C74.7627 17.2334 74.2939 16.3838 73.6201 15.7393C72.7705 16.2666 72.082 16.9404 71.5547 17.7607C71.0566 18.5811 70.6611 19.5039 70.3682 20.5293C70.1045 21.5547 69.9141 22.6533 69.7969 23.8252C69.709 24.9678 69.665 26.1104 69.665 27.2529C69.665 27.7217 69.4893 28.1318 69.1377 28.4834C68.7861 28.835 68.4053 29.0107 67.9951 29.0107C67.585 29.0107 67.1602 28.8789 66.7207 28.6152C66.3105 28.3516 66.1055 27.8828 66.1055 27.209C66.1055 26.5059 66.1055 25.7881 66.1055 25.0557C66.1348 24.3232 66.1787 23.5322 66.2373 22.6826C66.2373 21.833 66.1934 20.9834 66.1055 20.1338C66.0469 19.2842 65.9297 18.4932 65.7539 17.7607C65.5781 17.0283 65.3291 16.3984 65.0068 15.8711C64.6846 15.3145 64.2744 14.9189 63.7764 14.6846C63.4541 14.6846 63.1465 14.7432 62.8535 14.8604C62.5898 14.9775 62.3262 15.1094 62.0625 15.2559L61.9307 15.3438C61.6084 15.666 61.4033 15.8418 61.3154 15.8711C61.3154 16.75 61.3887 17.6582 61.5352 18.5957C61.6816 19.5332 61.7549 20.5 61.7549 21.4961C61.7549 22.2285 61.7256 23.0781 61.667 24.0449C61.6377 24.9824 61.5352 25.8906 61.3594 26.7695C61.1836 27.6191 60.9199 28.3369 60.5684 28.9229C60.2461 29.5381 59.7773 29.8457 59.1621 29.8457C58.7227 29.8457 58.2979 29.6992 57.8877 29.4062C57.5068 29.1133 57.3164 28.6299 57.3164 27.9561C57.3164 27.7803 57.3311 27.6484 57.3604 27.5605C57.917 25.627 58.1953 23.4736 58.1953 21.1006C58.1953 18.6104 57.9609 16.5156 57.4922 14.8164L57.3604 14.6406C57.0674 14.6113 56.7451 14.5527 56.3936 14.4648C56.0713 14.377 55.7637 14.2598 55.4707 14.1133C55.1777 13.9375 54.9287 13.7324 54.7236 13.498C54.5186 13.2344 54.416 12.9121 54.416 12.5312C54.416 11.7988 54.7969 11.2568 55.5586 10.9053ZM93.3516 9.6748C93.8203 9.82129 94.1719 10.0703 94.4062 10.4219C94.6406 10.7734 94.7578 11.125 94.7578 11.4766C94.7578 11.9746 94.582 12.3994 94.2305 12.751C93.8789 13.0732 93.4541 13.2344 92.9561 13.2344C92.8096 13.2344 92.6924 13.2197 92.6045 13.1904C91.9893 13.0146 91.418 12.8828 90.8906 12.7949C90.3633 12.6777 89.8506 12.6191 89.3525 12.6191C88.9131 12.6191 88.4736 12.6631 88.0342 12.751C87.5947 12.8389 87.126 12.9561 86.6279 13.1025L86.584 13.1465C87.0234 13.9961 87.624 14.7432 88.3857 15.3877C89.1475 16.0322 89.9385 16.6914 90.7588 17.3652C91.5791 18.0098 92.3555 18.6982 93.0879 19.4307C93.8496 20.1631 94.4062 21.0127 94.7578 21.9795C94.9043 22.3604 94.9775 22.7559 94.9775 23.166C94.9775 23.7812 94.8604 24.4258 94.626 25.0996C94.3916 25.7734 94.04 26.3887 93.5713 26.9453C93.1318 27.502 92.5605 27.9561 91.8574 28.3076C91.1543 28.6885 90.3193 28.8789 89.3525 28.8789C88.2686 28.8789 87.2725 28.7031 86.3643 28.3516C85.4854 28.0293 84.709 27.5898 84.0352 27.0332L83.2002 26.5059L82.8047 26.1104C82.3652 25.7295 82.1309 25.2607 82.1016 24.7041V24.4404C82.1895 23.8838 82.3799 23.4883 82.6729 23.2539C82.9951 22.9902 83.376 22.8291 83.8154 22.7705C84.4014 22.7705 84.9434 23.0781 85.4414 23.6934L86.4961 24.2646C86.9062 24.499 87.3604 24.7334 87.8584 24.9678C88.3857 25.2021 88.8984 25.3193 89.3965 25.3193C89.8066 25.3193 90.2021 25.2021 90.583 24.9678L90.8467 24.748C90.9346 24.4844 91.0078 24.2207 91.0664 23.957C91.1543 23.6934 91.1982 23.4443 91.1982 23.21C91.1982 22.7705 91.0957 22.4043 90.8906 22.1113C90.7148 21.7891 90.4658 21.5107 90.1436 21.2764C89.8506 21.0127 89.5283 20.7783 89.1768 20.5732C88.8252 20.3389 88.4736 20.0898 88.1221 19.8262C87.7998 19.5918 87.3457 19.2256 86.7598 18.7275C86.2031 18.2002 85.6318 17.6143 85.0459 16.9697C84.46 16.3252 83.9473 15.6514 83.5078 14.9482C83.0977 14.2158 82.8926 13.542 82.8926 12.9268C82.8926 12.1943 83.1123 11.5791 83.5518 11.0811C83.9912 10.5537 84.5332 10.1436 85.1777 9.85059C85.8223 9.52832 86.4961 9.30859 87.1992 9.19141C87.9023 9.04492 88.5029 8.97168 89.001 8.97168C89.8213 8.97168 90.5537 9.03027 91.1982 9.14746C91.8721 9.26465 92.5898 9.44043 93.3516 9.6748Z" fill="black"/>
</g>
<defs>
<filter id="filter0_d_1_13" x="0.669922" y="0.797852" width="98.3076" height="37.3994" filterUnits="userSpaceOnUse" color-interpolation-filters="sRGB">
<feFlood flood-opacity="0" result="BackgroundImageFix"/>
<feColorMatrix in="SourceAlpha" type="matrix" values="0 0 0 0 0 0 0 0 0 0 0 0 0 0 0 0 0 0 127 0" result="hardAlpha"/>
<feOffset dy="4"/>
<feGaussianBlur stdDeviation="2"/>
<feComposite in2="hardAlpha" operator="out"/>
<feColorMatrix type="matrix" values="0 0 0 0 1 0 0 0 0 1 0 0 0 0 0 0 0 0 0.75 0"/>
<feBlend mode="normal" in2="BackgroundImageFix" result="effect1_dropShadow_1_13"/>
<feBlend mode="normal" in="SourceGraphic" in2="effect1_dropShadow_1_13" result="shape"/>
</filter>
</defs>
</svg>
