<svg width="36" height="36" viewBox="0 0 36 36" fill="none" xmlns="http://www.w3.org/2000/svg">
<path d="M24.66 4.65302C21.945 4.65302 19.515 5.97301 18 7.99801C17.2262 6.96124 16.2214 6.1191 15.0653 5.53846C13.9092 4.95781 12.6337 4.65464 11.34 4.65302C6.735 4.65302 3 8.40302 3 13.038C3 14.823 3.285 16.473 3.78 18.003C6.15 25.503 13.455 29.988 17.07 31.218C17.58 31.398 18.42 31.398 18.93 31.218C22.545 29.988 29.85 25.503 32.22 18.003C32.715 16.473 33 14.823 33 13.038C33 8.40302 29.265 4.65302 24.66 4.65302Z" fill="black"/>
</svg>
